<svg xmlns="http://www.w3.org/2000/svg" height="50" viewBox="0 0 34 40" style="color: rgba(227, 227, 227, .6); background: #121212">
  <svg x="8" y="8" width="18" height="24" viewBox="0 0 384 512">
    <path fill="currentColor"
      d="M256 0v128h128L256 0zM224 128L224 0H48C21.49 0 0 21.49 0 48v416C0 490.5 21.49 512 48 512h288c26.51 0 48-21.49 48-48V160h-127.1C238.3 160 224 145.7 224 128zM288.1 344.1C284.3 349.7 278.2 352 272 352s-12.28-2.344-16.97-7.031L216 305.9V408c0 13.25-10.75 24-24 24s-24-10.75-24-24V305.9l-39.03 39.03c-9.375 9.375-24.56 9.375-33.94 0s-9.375-24.56 0-33.94l80-80c9.375-9.375 24.56-9.375 33.94 0l80 80C298.3 320.4 298.3 335.6 288.1 344.1z">
    </path>
  </svg>
</svg>