<svg xmlns="http://www.w3.org/2000/svg" height="50" viewBox="0 0 34 40"
    style="color: rgba(227, 227, 227, .6); background: #121212">
    <svg x="8" y="8" width="18" height="24" viewBox="0 0 512 512">
        <path fill="currentColor"
            d="M160 0c17.7 0 32 14.3 32 32V64H320V32c0-17.7 14.3-32 32-32s32 14.3 32 32V64h48c26.5 0 48 21.5 48 48v48H32V112c0-26.5 21.5-48 48-48h48V32c0-17.7 14.3-32 32-32zM32 192H480V464c0 26.5-21.5 48-48 48H80c-26.5 0-48-21.5-48-48V192zM337 305c9.4-9.4 9.4-24.6 0-33.9s-24.6-9.4-33.9 0l-47 47-47-47c-9.4-9.4-24.6-9.4-33.9 0s-9.4 24.6 0 33.9l47 47-47 47c-9.4 9.4-9.4 24.6 0 33.9s24.6 9.4 33.9 0l47-47 47 47c9.4 9.4 24.6 9.4 33.9 0s9.4-24.6 0-33.9l-47-47 47-47z">
        </path>
    </svg>
</svg>