<svg xmlns="http://www.w3.org/2000/svg" height="50" viewBox="0 0 34 40" style="color: rgba(227, 227, 227, .6); background: #121212">
    <svg x="8" y="8" width="18" height="24" viewBox="0 0 576 512">
      <path fill="currentColor"
        d="M544 32h-112l-32-32H320c-17.62 0-32 14.38-32 32v160c0 17.62 14.38 32 32 32h224c17.62 0 32-14.38 32-32V64C576 46.38 561.6 32 544 32zM544 320h-112l-32-32H320c-17.62 0-32 14.38-32 32v160c0 17.62 14.38 32 32 32h224c17.62 0 32-14.38 32-32v-128C576 334.4 561.6 320 544 320zM64 16C64 7.125 56.88 0 48 0h-32C7.125 0 0 7.125 0 16V416c0 17.62 14.38 32 32 32h224v-64H64V160h192V96H64V16z">
      </path>
    </svg>
  </svg>