<svg xmlns="http://www.w3.org/2000/svg" height="50" viewBox="0 0 40 40" style="color: rgba(227, 227, 227, .6); background: #121212">
  <svg x="8" y="8" width="24" height="24" viewBox="0 0 512 512">
    <path fill="currentColor"
      d="M464,128H272L208,64H48A48,48,0,0,0,0,112V400a48,48,0,0,0,48,48H464a48,48,0,0,0,48-48V176A48,48,0,0,0,464,128ZM359.5,296a16,16,0,0,1-16,16h-64v64a16,16,0,0,1-16,16h-16a16,16,0,0,1-16-16V312h-64a16,16,0,0,1-16-16V280a16,16,0,0,1,16-16h64V200a16,16,0,0,1,16-16h16a16,16,0,0,1,16,16v64h64a16,16,0,0,1,16,16Z">
    </path>
  </svg>
</svg>
